<?xml version="1.0" encoding="UTF-8" standalone="no"?>
<!-- Created with Inkscape (http://www.inkscape.org/) -->

<svg
   version="1.1"
   id="svg815"
   xml:space="preserve"
   width="185.28279"
   height="124"
   viewBox="0 0 185.28279 124"
   sodipodi:docname="King's Island Logo.svg"
   inkscape:version="1.3 (0e150ed6c4, 2023-07-21)"
   xmlns:inkscape="http://www.inkscape.org/namespaces/inkscape"
   xmlns:sodipodi="http://sodipodi.sourceforge.net/DTD/sodipodi-0.dtd"
   xmlns="http://www.w3.org/2000/svg"
   xmlns:svg="http://www.w3.org/2000/svg"
   xmlns:rdf="http://www.w3.org/1999/02/22-rdf-syntax-ns#"
   xmlns:cc="http://creativecommons.org/ns#"
   xmlns:dc="http://purl.org/dc/elements/1.1/"><metadata
     id="metadata821"><rdf:RDF><cc:Work
         rdf:about=""><dc:format>image/svg+xml</dc:format><dc:type
           rdf:resource="http://purl.org/dc/dcmitype/StillImage" /></cc:Work></rdf:RDF></metadata><defs
     id="defs819" /><sodipodi:namedview
     pagecolor="#ffffff"
     bordercolor="#666666"
     borderopacity="1"
     objecttolerance="10"
     gridtolerance="10"
     guidetolerance="10"
     inkscape:pageopacity="0"
     inkscape:pageshadow="2"
     inkscape:window-width="2560"
     inkscape:window-height="1351"
     id="namedview817"
     showgrid="false"
     fit-margin-top="0"
     fit-margin-left="0"
     fit-margin-right="0"
     fit-margin-bottom="0"
     inkscape:zoom="1.0595238"
     inkscape:cx="600.74158"
     inkscape:cy="246.80899"
     inkscape:current-layer="svg815"
     inkscape:showpageshadow="2"
     inkscape:pagecheckerboard="0"
     inkscape:deskcolor="#d1d1d1"
     inkscape:window-x="-9"
     inkscape:window-y="-9"
     inkscape:window-maximized="1" /><path
     d="m 0,0 c -7.296,4.954 -15.414,-0.036 -21.418,5.049 0.273,-1.849 0.825,-7.146 0.927,-8.5 C -13.762,-5.017 -10.503,2.178 0,0"
     style="fill:#ee293d;fill-opacity:1;fill-rule:nonzero;stroke:none"
     id="path977"
     inkscape:connector-curvature="0"
     transform="matrix(1.3618517,0,0,-1.3618517,80.613858,14.591284)"
     inkscape:label="Flag" /><path
     d="m 0,0 c -0.128,-1.576 -1.656,-2.416 -2.983,-2.602 -1.208,-0.169 -2.685,0.688 -2.68,2.988 0.007,2.962 2.62,5.386 4.011,5.924 0.883,0.34 1.461,0.148 1.527,-0.452 C -0.089,5.53 -0.089,4.634 -0.056,3.561 -0.014,2.265 0.069,0.858 0,0 m 10.461,1.345 c 0.029,2.476 0.171,5.797 -10e-4,7.497 -0.281,2.77 -1.411,4.698 -3.816,6.499 -2.586,1.935 -5.515,2.849 -9.996,2.939 -3.285,0.066 -7.066,-0.698 -9.492,-1.548 0.076,-1.834 0.15,-3.668 0.227,-5.481 1.57,0.829 4.627,1.733 6.888,1.992 2.422,0.279 4.477,-0.608 5.086,-2.447 -2.333,0.609 -6.338,0 -10.133,-2.52 -2.406,-1.598 -4.341,-4.406 -4.757,-7.871 -0.076,-0.922 -0.444,-2.045 0.28,-4.072 2.056,-3.966 5.383,-4.544 8.663,-4.191 2.581,0.279 5.132,1.274 7.007,2.26 0.128,-0.533 0.257,-1.067 0.387,-1.598 2.423,0.119 8.971,-0.038 10.821,-0.138 -0.856,0.979 -1.193,6.202 -1.164,8.679 m -42.03,4.035 c -1.533,1.113 -2.927,1.706 -5.703,2.36 -2.941,0.696 -3.978,1.219 -3.967,2.341 0.012,1.121 1.267,1.974 3.53,2.101 2.262,0.126 3.358,0.158 6.373,-0.599 -0.166,1.849 -0.331,3.711 -0.495,5.577 -1.665,0.214 -4.346,0.355 -5.828,0.304 -9.139,-0.314 -14.637,-4.842 -14.707,-10.508 -0.024,-1.966 0.993,-3.619 2.718,-5.01 1.724,-1.118 3.067,-1.576 6.151,-2.028 3.494,-0.514 4.729,-1.327 4.698,-2.884 -0.023,-1.224 -1.393,-2.214 -3.472,-2.671 -3.065,-0.675 -6.309,-0.281 -9.896,0.197 -0.14,-1.981 -0.366,-5.887 -0.36,-6.218 3.981,-0.233 7.181,-0.336 10.763,0.36 7.415,1.433 12.618,6.021 12.731,11.429 0.047,2.198 -0.763,3.749 -2.536,5.249 M 56.193,-5.334 c -0.203,-1.98 -1.745,-1.868 -2.629,-1.433 -2.096,1.022 -3.434,2.896 -3.527,8.925 -0.031,2.014 0.558,4.298 1.386,5.452 1.118,1.561 2.476,2.085 2.988,2.071 0.886,-0.026 1.763,-1.212 1.782,-2.342 0.027,-1.512 0.299,-9.768 0,-12.673 m 10.741,-2.753 c 0.019,8.055 0.145,16.292 -0.189,24.29 -0.124,2.932 -0.222,8.967 -2.137,10.711 -3.618,0 -8.4,0.518 -10.905,0.173 1.47,-1.721 2.319,-7.582 2.403,-11.228 -7.704,2.354 -15.22,-2.978 -16.757,-11.126 0.013,1.832 0.016,3.745 -0.086,5.521 0.006,1.074 -0.21,2.125 -0.892,3.366 -1.197,2.011 -3.476,3.315 -5.865,3.558 -3.331,0.34 -6.555,-0.295 -9.766,-3.329 -0.004,0.699 -0.477,3.261 -0.824,4.313 -1.957,0.162 -8.755,-0.204 -10.484,-0.422 1.051,-3.679 1.29,-8.965 1.423,-12.928 0.13,-3.968 -0.3,-8.998 -0.521,-12.159 2.443,0.295 8.848,-0.293 11.746,-0.401 -0.484,2.024 -0.895,8.011 -0.828,13.428 0.021,1.596 -0.129,2.889 0.554,4.118 0.685,1.226 2.681,1.298 3.569,0.093 0.696,-0.945 0.716,-3.546 0.852,-5.39 0.133,-1.843 0.1,-8.462 -0.314,-12.562 3.951,-0.604 7.066,-1.194 12.019,-2.301 -0.308,1.672 -0.485,5.862 -0.559,8.877 1.056,-5.163 4.93,-9.813 9.098,-11.576 4.074,-1.72 6.859,-0.546 8.125,0.559 0.046,-0.654 -0.053,-1.452 0.068,-2.312 1.739,-0.62 2.507,-1 4.639,-1.95 3.001,-1.339 5.018,-2.111 6.587,-2.594 -0.647,3.398 -0.964,8.124 -0.956,11.271 m -83.74,7.917 c 0.071,5.269 -0.181,10.04 -0.159,15.414 -0.027,4.741 0.331,6.259 0,11.837 -3.695,-0.014 -7.659,-0.052 -11.349,-0.076 0.352,-1.082 0.699,-2.713 0.694,-3.607 -0.056,-8.032 -0.073,-16.073 -0.245,-24.105 -0.076,-3.526 -0.449,-5.985 -0.695,-8.688 3.893,0.44 8.027,1.11 11.952,1.338 -0.116,2.045 -0.227,5.703 -0.198,7.887 m -37.797,-5.153 c -0.181,8.762 -0.202,15.441 -0.113,23.239 0.035,3.025 0.184,5.934 0.399,8.78 -4.093,-0.087 -8.179,-0.182 -12.253,-0.255 0.144,-2.615 0.458,-5.141 0.446,-9.385 -0.024,-9.143 0,-17.032 -0.241,-27.054 -0.076,-3.162 -0.497,-7.489 -0.603,-9.792 4.587,2.118 8.917,3.546 12.866,5.221 -0.029,0.438 -0.054,0.89 -0.086,1.337 -0.213,2.913 -0.365,5.491 -0.415,7.909 m 37.804,60.243 c -2.63,0.377 -7.887,0.312 -11.311,0.746 0.54,-4.407 0.39,-9.776 0.37,-12.577 -0.018,-2.748 -0.399,-10.533 -0.758,-12.974 -3.795,7.646 -7.488,15.342 -11.062,23.092 1.059,3.009 1.579,7.721 8.841,8.825 -0.914,2.288 -1.822,4.594 -2.731,6.918 -9.463,0.577 -13.271,-9.124 -15.738,-16.481 0.025,2.098 0.049,4.199 0.074,6.297 0.027,2.222 0.125,5.857 0.333,8.26 0.028,0.783 0.056,1.563 0.085,2.345 -2.98,-0.376 -9.657,0.867 -12.407,1.892 0.01,-0.809 0.015,-1.62 0.028,-2.422 0.053,-3.244 0.141,-6.82 0.113,-8.766 -0.102,-7.31 -0.205,-14.625 -0.305,-21.935 -0.033,-2.432 -0.284,-5.128 -0.431,-7.294 -0.004,-0.325 -0.009,-0.648 -0.014,-0.972 4.096,0.008 8.202,0.019 12.316,0.026 -0.016,0.312 -0.033,0.621 -0.046,0.93 -0.104,2.362 -0.125,4.5 -0.096,6.975 0.015,1.328 0.031,2.654 0.046,3.982 0.86,1.015 1.718,2.025 2.577,3.026 2.009,-5.069 4.03,-10.027 6.057,-14.899 4.136,0.02 8.28,0.041 12.428,0.058 3.358,0.007 9.813,0.067 11.868,-0.011 -0.33,4.136 -0.657,7.295 -0.637,11.805 0.02,4.513 -0.528,9.949 0.4,13.154 M 53.063,29.504 c 7.432,-0.049 12.696,3.9 12.611,9.046 -0.036,2.073 -0.881,3.596 -2.668,5.199 -1.548,1.21 -2.925,1.885 -5.679,2.815 -2.921,0.987 -3.969,1.718 -3.982,2.858 -0.015,1.136 1.216,1.848 3.445,1.776 2.235,-0.073 3.312,-0.099 6.292,-1.008 -0.201,1.966 -0.403,3.699 -0.607,5.341 -1.644,0.3 -4.29,0.679 -5.757,0.783 -9.024,0.639 -14.438,-3.052 -14.383,-8.36 0.02,-1.858 0.98,-3.624 2.712,-5.162 1.723,-1.286 3.105,-1.947 6.236,-2.875 3.548,-1.049 4.801,-1.904 4.821,-3.296 0.015,-1.095 -1.327,-1.789 -3.461,-1.78 -3.131,0.01 -6.17,0.695 -10.61,1.673 -0.163,-1.508 -0.325,-3.013 -0.491,-4.516 0.004,-0.269 0.012,-0.537 0.012,-0.802 5.111,-1.298 7.854,-1.667 11.509,-1.692 m -68.06,0.503 c 2.421,0.135 8.751,-0.059 11.629,0.055 -0.455,1.955 -0.797,7.738 -0.675,13.292 0.037,1.634 -0.111,2.831 0.578,4.023 0.69,1.194 2.675,1.322 3.553,0.214 0.689,-0.87 0.691,-3.376 0.805,-5.228 0.114,-1.843 0.001,-8.279 -0.459,-12.301 3.919,-0.218 7.014,0.107 11.973,0.011 -0.348,1.751 -0.479,6.006 -0.487,8.949 -0.006,2.754 0.181,6.456 0.01,9.515 0.01,1.001 -0.201,1.946 -0.869,3.042 -1.182,1.768 -3.438,2.847 -5.816,2.982 -3.321,0.188 -6.527,-0.448 -9.739,-3.363 0.002,0.651 -0.451,3.051 -0.793,4.038 -1.948,0.114 -8.698,-0.183 -10.412,-0.335 1.013,-3.547 1.223,-8.595 1.324,-12.656 0.099,-4.057 -0.379,-9.054 -0.622,-12.238 m 42.418,20.425 c 0.77,0.031 1.303,-0.191 1.785,-0.901 0.029,-4.251 0.061,-8.499 0.091,-12.753 -0.71,-0.54 -1.599,-0.885 -2.313,-0.892 -2.142,-0.022 -3.161,1.989 -3.186,6.174 -0.03,4.811 1.491,8.285 3.623,8.372 M 23.51,30.071 c 2.083,-0.001 3.69,0.481 5.881,1.798 0.007,-0.991 0.015,-1.979 0.021,-2.972 0.016,-2.197 -1.348,-3.346 -4.031,-3.321 -3.1,0.027 -5.493,0.858 -9.196,3.022 -0.65,-2.251 -1.298,-4.56 -1.95,-6.889 3.531,-0.826 7.243,-1.281 10.699,-1.35 10.077,-0.205 15.651,3.158 15.591,9.249 -0.007,0.649 -0.062,1.168 -0.265,2.598 -0.405,2.819 -0.639,4.737 -0.666,7.733 -0.058,6.086 0.161,10.696 0.584,13.419 0.101,0.651 0.169,0.91 0.394,1.575 -1.047,0.348 -2.094,0.69 -3.139,1.034 -0.781,-0.748 -1.56,-1.492 -2.342,-2.23 -3.327,1.635 -4.509,1.895 -7.704,1.737 -2.014,-0.1 -3.85,-0.486 -5.499,-1.11 -5.443,-2.061 -9.104,-7.394 -9.087,-13.655 0.02,-6.541 4.157,-10.628 10.709,-10.638"
     style="fill:#1c4f9c;fill-opacity:1;fill-rule:nonzero;stroke:none"
     id="path973"
     inkscape:connector-curvature="0"
     transform="matrix(1.3618517,0,0,-1.3618517,91.200484,97.049634)"
     inkscape:label="Kings Island" /><path
     d="m 0,0 c 0.384,0 0.694,0.031 0.694,0.446 0,0.351 -0.242,0.427 -0.595,0.427 H -0.47 V 0 Z M -0.47,-1.464 H -0.841 V 1.174 H 0.25 c 0.545,0 0.816,-0.243 0.816,-0.749 0,-0.47 -0.293,-0.67 -0.677,-0.715 L 1.148,-1.464 H 0.725 L 0.017,-0.301 H -0.47 Z m 0.518,-0.602 c 1.056,0 1.869,0.836 1.869,1.927 0,1.082 -0.813,1.916 -1.869,1.916 -1.057,0 -1.865,-0.834 -1.865,-1.916 0,-1.091 0.808,-1.927 1.865,-1.927 m 0,4.182 c 1.233,0 2.239,-1.01 2.239,-2.261 0,-1.249 -1.006,-2.259 -2.239,-2.259 -1.237,0 -2.237,1.01 -2.237,2.259 0,1.251 1,2.261 2.237,2.261"
     style="fill:#1c4f9c;fill-opacity:1;fill-rule:nonzero;stroke:none"
     id="path969"
     inkscape:connector-curvature="0"
     transform="matrix(1.3618517,0,0,-1.3618517,182.16864,55.12217)"
     inkscape:label="(R)" /></svg>
